# xmcd
#
# Track frame offsets: 
#        150
#        24881
#        36075
#        51749
#        67332
#        79749
#        92608
#        103057
#        117201
#        135159
#        150863
#
# Disc length: 2313 seconds
#
# Revision: 0
# Processed by: cddbd v1.5.2PL0 Copyright (c) Steve Scherf et al.
# Submitted via: ExactAudioCopyFreeDBPlugin 1.0
#
DISCID=8509070b
DTITLE=Wino and Conny Ochs - Heavy Kingdom
DYEAR=2012
DGENRE=Acoustic
TTITLE0=Somewhere Nowhere
TTITLE1=Heavy Kingdom
TTITLE2=Dust
TTITLE3=Vultures By The Vines
TTITLE4=Dark Ravine
TTITLE5=Traces Of Blood
TTITLE6=Heavy Kingdom Jam
TTITLE7=Highway Kind
TTITLE8=Dead Yesterday
TTITLE9=Here Comes The Siren
TTITLE10=Labour Of Love
EXTD=
EXTT0=
EXTT1=
EXTT2=
EXTT3=
EXTT4=
EXTT5=
EXTT6=
EXTT7=
EXTT8=
EXTT9=
EXTT10=
PLAYORDER=
